<?xml version="1.0" standalone="no"?>
<!DOCTYPE svg PUBLIC "-//W3C//DTD SVG 20010904//EN"
 "http://www.w3.org/TR/2001/REC-SVG-20010904/DTD/svg10.dtd">
<svg version="1.0" xmlns="http://www.w3.org/2000/svg"
 width="500.000000pt" height="500.000000pt" viewBox="0 0 500.000000 500.000000"
 preserveAspectRatio="xMidYMid meet">

<g transform="translate(0.000000,500.000000) scale(0.100000,-0.100000)"
fill="#000000" stroke="none">
<path d="M2009 3539 c-533 -383 -748 -542 -753 -556 -8 -21 11 -43 38 -43 45
0 99 -23 138 -58 148 -133 76 -357 -124 -386 -27 -4 -49 -13 -52 -22 -8 -21
-8 -20 10 -38 13 -13 45 -16 190 -16 190 0 224 -7 277 -58 29 -27 57 -72 57
-91 0 -5 -94 -78 -210 -161 -137 -99 -210 -158 -210 -170 0 -24 18 -36 63 -43
101 -16 178 -98 185 -197 9 -127 -64 -221 -186 -239 -47 -6 -69 -27 -59 -55 6
-15 66 -16 684 -16 l678 0 50 24 c39 18 127 101 396 372 322 325 348 353 364
404 24 72 22 145 -6 209 l-22 51 92 95 c112 116 136 161 135 261 0 93 -35 169
-105 224 -60 47 -98 59 -206 67 l-82 6 35 41 c91 106 80 279 -24 383 -19 20
-60 47 -91 62 l-56 26 -546 3 -546 3 -114 -82z m1259 -42 c65 -43 96 -97 100
-177 3 -49 -1 -76 -13 -101 -19 -39 -506 -520 -510 -504 -2 5 -6 27 -8 47 -12
82 -68 159 -148 203 l-54 30 -612 3 c-337 1 -613 6 -613 10 1 4 162 123 358
264 l357 257 551 -2 550 -2 42 -28z m280 -506 c78 -40 122 -113 122 -201 0
-86 -24 -117 -278 -366 l-237 -232 -7 39 c-28 157 -135 245 -310 256 l-90 6
259 259 258 258 123 0 c101 0 129 -3 160 -19z m-937 -73 c52 -15 117 -73 140
-122 37 -81 16 -188 -47 -248 -60 -56 -55 -55 -656 -63 -307 -4 -558 -5 -558
-1 0 3 14 25 30 48 33 45 60 123 60 173 0 50 -27 128 -60 173 -16 23 -30 44
-30 47 0 3 244 5 541 5 382 0 553 -3 580 -12z m300 -510 c51 -15 114 -70 141
-122 53 -103 1 -233 -118 -292 -36 -17 -66 -19 -359 -22 -176 -2 -425 0 -553
3 l-234 7 26 27 c39 41 66 109 66 171 0 74 -14 119 -55 180 -19 29 -35 54 -35
56 0 2 244 4 541 4 382 0 553 -3 580 -12z m565 -63 c20 -48 18 -111 -6 -159
-12 -25 -113 -134 -263 -284 l-244 -244 -6 50 c-6 54 -37 123 -70 159 -11 13
-19 24 -16 26 2 2 30 11 62 21 64 19 106 55 382 328 77 76 141 138 143 138 2
0 10 -16 18 -35z m-1675 -203 c-14 -48 -39 -89 -71 -116 -37 -30 -126 -59
-172 -54 -32 3 -28 7 102 101 74 53 137 97 141 97 4 0 4 -13 0 -28z m970 -269
c74 -38 111 -93 117 -173 6 -80 -17 -139 -71 -185 -23 -20 -57 -40 -77 -46
-22 -6 -230 -9 -583 -7 l-548 3 32 43 c77 105 77 247 0 343 -17 21 -31 40 -31
43 0 3 249 6 553 6 l553 0 55 -27z"/>
</g>
</svg>
